# xmcd CD database file
#
# Track frame offsets:
#	150
#	13321
#	25109
#	44654
#	60997
#	77396
#	88684
#	120107
#	132674
#	146855
#	162310
#	181570
#	193235
#	207510
#
# Disc length: 2926 seconds
#
# Revision: 0
# Processed by: cddbd v1.5.2PL0 Copyright (c) Steve Scherf et al.
# Submitted via: CDex 1.70beta2
#
DISCID=be0b6c0e
DTITLE=Nina Simone - Autour de Minuit - Nina Simone
DYEAR=1900
DGENRE=Jazz
TTITLE0=Feeling Good
TTITLE1=I Put A Spell On You
TTITLE2=Don't Explain
TTITLE3=Ne Me Quitte Pas
TTITLE4=My Baby Just Cares For Me
TTITLE5=I Loves You, Porgy
TTITLE6=Wild Is The Wind
TTITLE7=Don't Let Me Be Misunderstood
TTITLE8=Tell Me More And More And Then Some
TTITLE9=Keeper Of The Flame
TTITLE10=Lilac Wine
TTITLE11=Little Girl Blue
TTITLE12=He's Got The Whole World In His Hands
TTITLE13=Nobody Knows When You're Down and Out
EXTD=
EXTT0=
EXTT1=
EXTT2=
EXTT3=
EXTT4=
EXTT5=
EXTT6=
EXTT7=
EXTT8=
EXTT9=
EXTT10=
EXTT11=
EXTT12=
EXTT13=
PLAYORDER=
